<svg width="1344.000000pt" height="1341.000000pt" viewBox="0 0 1344.000000 1341.000000" xmlns="http://www.w3.org/2000/svg">
  <g transform="translate(0.000000,1341.000000) scale(0.100000,-0.100000)" fill="#000766" stroke="none">
    <path d="M17 8018 c-9 -6597 -9 -8009 -3 -8016 3 -3 2156 1 4783 8 2628 7
5648 15 6711 17 l1932 5 0 19 0 18 -521 518 c-582 578 -1493 1483 -2482 2465
-362 359 -941 934 -1287 1278 -346 344 -965 958 -1375 1365 -410 407 -1024
1017 -1364 1355 -786 781 -1772 1760 -2627 2609 -368 365 -968 961 -1334 1325
-1853 1840 -2400 2381 -2413 2384 l-14 3 -6 -5353z" />
  </g>
  <g transform="translate(0.000000,1341.000000) scale(0.100000,-0.100000)" fill="#93b2aa" stroke="none">
    <path d="M6570 12189 c-2082 -3 -4133 -7 -4557 -8 -425 0 -773 -5 -773 -9 0
-4 118 -125 263 -268 144 -143 564 -560 932 -926 369 -366 702 -696 740 -733
39 -37 340 -336 670 -664 1871 -1857 3050 -3026 4839 -4796 489 -484 1091
-1080 1338 -1325 247 -245 659 -653 916 -908 257 -255 580 -575 718 -713 138
-137 258 -249 266 -249 l15 0 6 692 c4 381 9 1829 12 3218 3 1389 8 3464 11
4613 l5 2087 -808 -2 c-444 -1 -2511 -5 -4593 -9z" />
  </g>
  <g transform="translate(0.000000,1341.000000) scale(0.100000,-0.100000)" fill="#fefefe" stroke="none">
    <path d="M0 6705 l0 -6705 9 0 8 0 9 6680 9 6679 600 -594 600 -595 3230 5
c1777 3 4189 7 5362 10 l2132 6 -5 -2883 c-6 -3629 -21 -7699 -28 -7706 -3 -3
-119 108 -258 246 -139 138 -463 459 -720 714 -257 255 -669 663 -916 908
-247 245 -849 841 -1338 1325 -861 852 -1330 1316 -2284 2261 -1057 1047
-1429 1416 -1722 1707 -171 170 -312 306 -315 303 -5 -5 466 -475 2038 -2036
379 -377 990 -983 1357 -1347 367 -365 972 -966 1344 -1335 373 -370 970 -963
1327 -1318 357 -355 942 -935 1299 -1290 357 -355 884 -878 1170 -1162 287
-285 523 -518 526 -518 4 0 6 3004 6 6675 l0 6675 -6720 0 -6720 0 0 -6705z" />
    <path d="M2520 10896 c0 -9 275 -275 279 -270 5 5 -264 274 -273 274 -4 0 -6
-2 -6 -4z" />
    <path d="M3440 9986 c0 -9 634 -636 638 -631 5 5 -623 635 -632 635 -4 0 -6
-2 -6 -4z" />
    <path d="M8820 29 c-696 -3 -2201 -7 -3345 -9 -1144 -1 -2138 -6 -2210 -9 -71
-4 2189 -8 5023 -9 l5152 -2 0 20 0 20 -1677 -2 c-923 -1 -2247 -5 -2943 -9z" />
  </g>
  <g transform="translate(0.000000,1341.000000) scale(0.100000,-0.100000)" fill="#eaecf1" stroke="none">
    <path d="M20 13370 c0 -7 3 -10 7 -7 3 4 3 10 0 14 -4 3 -7 0 -7 -7z" />
    <path d="M210 13187 c0 -1 35 -36 78 -77 l77 -75 -75 78 c-69 71 -80 82 -80
74z" />
    <path d="M10878 12193 c61 -2 163 -2 225 0 61 1 11 3 -113 3 -124 0 -174 -2
-112 -3z" />
    <path d="M7518 12183 c61 -2 163 -2 225 0 61 1 11 3 -113 3 -124 0 -174 -2
-112 -3z" />
    <path d="M1235 12170 c4 -6 11 -8 16 -5 14 9 11 15 -7 15 l-15 0 6 -10z" />
    <path d="M11964 10970 c0 -102 2 -143 3 -92 2 50 2 134 0 185 -1 50 -3 9 -3
-93z" />
    <path d="M2330 11085 c0 -9 195 -193 200 -188 5 4 -186 193 -195 193 -3 0 -5
-2 -5 -5z" />
    <path d="M2870 10545 c47 -47 86 -85 87 -85 11 0 -7 23 -74 91 -42 44 -81 79
-87 79 -6 0 27 -38 74 -85z" />
    <path d="M3250 10176 c0 -9 192 -197 197 -192 3 3 -38 48 -91 101 -87 86 -106
103 -106 91z" />
    <path d="M4071 9355 c2 -2 71 -72 153 -154 82 -83 153 -148 157 -145 10 6
-290 304 -305 304 -5 0 -7 -2 -5 -5z" />
    <path d="M11954 8335 c0 -71 1 -99 3 -62 2 37 2 96 0 130 -2 34 -3 4 -3 -68z" />
    <path d="M5093 8346 c0 -8 5 -14 11 -13 6 1 10 -4 9 -10 -2 -7 3 -12 10 -10 6
1 11 -4 10 -10 -2 -7 3 -12 10 -10 6 1 11 -4 10 -10 -2 -7 0 -12 5 -10 4 1 30
-20 57 -48 28 -27 49 -53 48 -57 -2 -5 3 -7 10 -5 6 1 11 -3 10 -9 -1 -6 5
-11 13 -11 l15 0 -33 35 c-39 42 -57 60 -130 130 l-55 53 0 -15z" />
    <path d="M5422 8012 c97 -102 130 -133 135 -128 3 3 -19 29 -48 57 -30 29 -53
56 -51 61 1 4 -4 7 -10 6 -7 -2 -12 3 -10 10 1 6 -4 11 -10 10 -7 -2 -12 3
-10 10 1 6 -4 11 -10 10 -7 -2 -12 2 -11 8 1 6 -5 11 -13 11 l-15 0 53 -55z" />
    <path d="M6013 7436 c0 -8 5 -14 11 -13 6 1 10 -4 9 -10 -2 -7 3 -12 10 -10 6
1 11 -4 10 -10 -2 -7 3 -12 10 -10 6 1 11 -4 10 -10 -2 -7 2 -12 9 -10 7 1 12
-5 13 -13 0 -8 7 -15 15 -15 8 -1 14 -6 13 -13 -2 -7 3 -11 10 -9 6 1 11 -4
10 -10 -2 -7 3 -12 10 -10 6 1 11 -4 10 -10 -2 -7 3 -12 10 -10 6 1 11 -4 10
-10 -2 -7 3 -12 10 -10 6 1 11 -3 10 -9 -1 -6 5 -11 13 -11 l15 0 -108 109
c-59 59 -108 108 -109 108 0 0 -1 -6 -1 -14z" />
    <path d="M6702 6742 c45 -48 109 -112 140 -140 l25 -22 0 14 c0 8 -3 14 -6 13
-9 -3 -146 136 -143 145 1 5 -4 7 -10 6 -7 -2 -12 2 -11 8 1 6 -5 11 -13 11
l-15 0 33 -35z" />
    <path d="M6937 6523 c-6 -9 87 -108 101 -108 4 0 6 -3 5 -7 -2 -5 3 -7 10 -5
6 1 11 -4 10 -10 -2 -7 3 -12 10 -10 6 1 11 -4 10 -10 -2 -7 3 -12 10 -10 6 1
11 -4 10 -10 -2 -7 3 -12 10 -10 6 1 11 -3 10 -9 -1 -6 5 -11 13 -11 8 0 14 1
14 1 0 1 -47 48 -104 105 -57 57 -106 99 -109 94z" />
    <path d="M14 5440 c0 -140 2 -198 3 -127 2 70 2 184 0 255 -1 70 -3 12 -3
-128z" />
    <path d="M7860 5616 c0 -4 26 -33 58 -63 31 -31 56 -59 55 -64 -3 -8 118 -133
172 -179 l30 -25 -19 23 c-11 12 -15 22 -10 22 4 0 -18 27 -51 60 -32 32 -62
57 -67 54 -5 -3 -7 0 -6 8 2 7 -3 12 -10 10 -8 -1 -11 1 -8 6 3 5 -29 42 -69
82 -41 41 -75 71 -75 66z m235 -236 c27 -27 47 -50 44 -50 -3 0 -27 23 -54 50
-27 28 -47 50 -44 50 3 0 27 -22 54 -50z" />
    <path d="M8760 4725 c0 -4 14 -20 31 -36 17 -16 32 -35 33 -44 3 -20 47 -66
57 -59 4 2 24 -12 44 -32 20 -20 38 -34 40 -32 2 1 -44 50 -101 107 -57 57
-104 101 -104 96z m100 -110 c13 -14 21 -25 18 -25 -2 0 -15 11 -28 25 -13 14
-21 25 -18 25 2 0 15 -11 28 -25z" />
    <path d="M9283 4193 l-12 -4 100 -100 c56 -54 102 -99 104 -99 2 0 2 8 1 18
-2 9 -9 17 -17 17 -8 1 -13 6 -12 11 3 16 -150 162 -164 157z m87 -80 l75 -78
-77 75 c-43 41 -78 76 -78 77 0 8 11 -3 80 -74z" />
    <path d="M9674 3805 c3 -20 117 -136 127 -129 11 7 81 -65 74 -76 l-6 -10 16
6 16 6 -111 109 c-61 60 -112 109 -114 109 -2 0 -3 -7 -2 -15z m71 -65 c33
-33 57 -60 54 -60 -2 0 -31 27 -64 60 -33 33 -57 60 -54 60 2 0 31 -27 64 -60z" />
    <path d="M10587 2909 c6 -6 9 -18 5 -27 l-5 -15 16 6 16 6 -6 -16 -6 -16 16 6
16 6 -6 -16 -6 -16 16 6 16 6 -6 -16 -6 -16 16 6 16 6 -6 -16 -6 -16 17 6 17
7 -6 -10 c-4 -6 7 -24 24 -41 l31 -30 11 7 12 7 -8 -13 -8 -12 14 -8 c15 -10
29 -4 29 12 l0 10 -16 -6 -15 -6 5 9 c7 12 -73 92 -85 85 l-9 -5 7 17 6 17
-16 -6 -16 -6 6 16 6 16 -16 -6 -16 -6 6 16 6 16 -16 -6 -16 -6 6 16 6 16 -16
-6 -16 -6 5 13 5 13 -18 7 -18 7 12 -12z m149 -150 l29 -32 -21 13 c-18 11
-50 50 -41 50 2 0 16 -14 33 -31z" />
    <path d="M11605 1900 c60 -60 110 -108 112 -106 4 4 -208 216 -216 216 -3 0
44 -49 104 -110z" />
    <path d="M11890 1596 c0 -10 200 -210 205 -205 2 2 -44 51 -101 108 -57 58
-104 101 -104 97z" />
    <path d="M13210 283 c0 -4 43 -49 95 -100 85 -83 105 -100 105 -90 0 1 -45 46
-100 100 -55 54 -100 94 -100 90z" />
    <path d="M12003 33 c20 -2 54 -2 75 0 20 2 3 4 -38 4 -41 0 -58 -2 -37 -4z" />
    <path d="M9767 23 c18 -2 50 -2 70 0 21 2 7 4 -32 4 -38 0 -55 -2 -38 -4z" />
    <path d="M5283 13 c20 -2 54 -2 75 0 20 2 3 4 -38 4 -41 0 -58 -2 -37 -4z" />
    <path d="M3047 3 c18 -2 50 -2 70 0 21 2 7 4 -32 4 -38 0 -55 -2 -38 -4z" />
  </g>
  <g transform="translate(0.000000,1341.000000) scale(0.100000,-0.100000)" fill="#8184b3" stroke="none">
    <path d="M2307 11105 c10 -13 22 -25 27 -25 5 0 -1 11 -14 25 -30 32 -36 32
-13 0z" />
    <path d="M2344 11068 l-7 -11 11 7 c12 7 16 16 8 16 -3 0 -8 -5 -12 -12z" />
    <path d="M2364 11048 l-7 -11 11 7 c12 7 16 16 8 16 -3 0 -8 -5 -12 -12z" />
    <path d="M2384 11028 l-7 -11 11 7 c12 7 16 16 8 16 -3 0 -8 -5 -12 -12z" />
    <path d="M2410 11016 c0 -10 50 -59 56 -54 2 3 -10 17 -26 33 -17 16 -30 25
-30 21z" />
    <path d="M25 10275 c0 -324 1 -456 2 -292 2 164 2 430 0 590 -1 161 -2 27 -2
-298z" />
    <path d="M3604 9818 l-7 -11 11 7 c7 4 12 9 12 12 0 8 -9 4 -16 -8z" />
    <path d="M3624 9798 l-7 -11 11 7 c12 7 16 16 8 16 -3 0 -8 -5 -12 -12z" />
    <path d="M3644 9778 l-7 -11 11 7 c7 4 12 9 12 12 0 8 -9 4 -16 -8z" />
    <path d="M3664 9758 l-7 -11 11 7 c12 7 16 16 8 16 -3 0 -8 -5 -12 -12z" />
    <path d="M3684 9738 l-7 -11 11 7 c7 4 12 9 12 12 0 8 -9 4 -16 -8z" />
    <path d="M3710 9726 c0 -10 50 -59 56 -54 2 3 -10 17 -26 33 -17 16 -30 25
-30 21z" />
    <path d="M4924 8508 l-7 -11 11 7 c12 7 16 16 8 16 -3 0 -8 -5 -12 -12z" />
    <path d="M4944 8488 l-7 -11 11 7 c12 7 16 16 8 16 -3 0 -8 -5 -12 -12z" />
    <path d="M4964 8468 l-7 -11 11 7 c12 7 16 16 8 16 -3 0 -8 -5 -12 -12z" />
    <path d="M4990 8456 c0 -10 50 -59 56 -54 2 3 -10 17 -26 33 -17 16 -30 25
-30 21z" />
    <path d="M5054 8378 l-7 -11 11 7 c7 4 12 9 12 12 0 8 -9 4 -16 -8z" />
    <path d="M7566 5891 c-4 -5 -2 -12 3 -15 5 -4 12 -2 15 3 4 5 2 12 -3 15 -5 4
-12 2 -15 -3z" />
    <path d="M8820 4637 c0 -2 15 -16 33 -33 l32 -29 -29 33 c-28 30 -36 37 -36
29z" />
    <path d="M10155 3310 c10 -11 20 -20 23 -20 3 0 -3 9 -13 20 -10 11 -20 20
-23 20 -3 0 3 -9 13 -20z" />
    <path d="M10305 3160 c10 -11 20 -20 23 -20 3 0 -3 9 -13 20 -10 11 -20 20
-23 20 -3 0 3 -9 13 -20z" />
    <path d="M15 1340 c0 -327 1 -461 2 -297 2 163 2 431 0 595 -1 163 -2 29 -2
-298z" />
    <path d="M11595 1880 c27 -27 51 -50 54 -50 3 0 -17 23 -44 50 -27 28 -51 50
-54 50 -3 0 17 -22 44 -50z" />
    <path d="M12875 610 c38 -38 72 -70 74 -70 3 0 -26 32 -64 70 -38 39 -72 70
-74 70 -3 0 26 -31 64 -70z" />
    <path d="M10943 33 c42 -2 112 -2 155 0 42 1 7 3 -78 3 -85 0 -120 -2 -77 -3z" />
    <path d="M8698 23 c46 -2 118 -2 160 0 42 1 5 3 -83 3 -88 0 -123 -2 -77 -3z" />
    <path d="M4223 13 c42 -2 112 -2 155 0 42 1 7 3 -78 3 -85 0 -120 -2 -77 -3z" />
    <path d="M1978 3 c46 -2 118 -2 160 0 42 1 5 3 -83 3 -88 0 -123 -2 -77 -3z" />
  </g>
  <g transform="translate(0.000000,1341.000000) scale(0.100000,-0.100000)" fill="#4d5193" stroke="none">
    <path d="M1250 12155 c14 -16 26 -32 28 -34 1 -2 4 -2 7 1 3 2 -10 18 -28 34
l-32 29 25 -30z" />
    <path d="M2470 10956 c0 -10 50 -59 56 -54 2 3 -10 17 -26 33 -17 16 -30 25
-30 21z" />
    <path d="M2534 10878 l-7 -11 11 7 c12 7 16 16 8 16 -3 0 -8 -5 -12 -12z" />
    <path d="M2554 10858 l-7 -11 11 7 c7 4 12 9 12 12 0 8 -9 4 -16 -8z" />
    <path d="M2574 10838 l-7 -11 11 7 c12 7 16 16 8 16 -3 0 -8 -5 -12 -12z" />
    <path d="M2600 10820 c0 -5 5 -10 11 -10 5 0 7 5 4 10 -3 6 -8 10 -11 10 -2 0
-4 -4 -4 -10z" />
    <path d="M25 9085 c0 -341 1 -482 2 -313 2 169 2 448 0 620 -1 172 -2 34 -2
-307z" />
    <path d="M3770 9660 c0 -5 5 -10 11 -10 5 0 7 5 4 10 -3 6 -8 10 -11 10 -2 0
-4 -4 -4 -10z" />
    <path d="M3794 9628 l-7 -11 11 7 c12 7 16 16 8 16 -3 0 -8 -5 -12 -12z" />
    <path d="M3814 9608 l-7 -11 11 7 c12 7 16 16 8 16 -3 0 -8 -5 -12 -12z" />
    <path d="M3834 9588 l-7 -11 11 7 c12 7 16 16 8 16 -3 0 -8 -5 -12 -12z" />
    <path d="M3854 9568 l-7 -11 11 7 c12 7 16 16 8 16 -3 0 -8 -5 -12 -12z" />
    <path d="M3880 9556 c0 -10 50 -59 56 -54 2 3 -10 17 -26 33 -17 16 -30 25
-30 21z" />
    <path d="M5074 8358 l-7 -11 11 7 c12 7 16 16 8 16 -3 0 -8 -5 -12 -12z" />
    <path d="M9045 4410 c10 -11 20 -20 23 -20 3 0 -3 9 -13 20 -10 11 -20 20 -23
20 -3 0 3 -9 13 -20z" />
    <path d="M10320 3146 c0 -2 8 -10 18 -17 l17 -14 -14 18 c-13 16 -21 21 -21
13z" />
    <path d="M10515 2950 c10 -11 20 -20 23 -20 3 0 -3 9 -13 20 -10 11 -20 20
-23 20 -3 0 3 -9 13 -20z" />
    <path d="M11795 1680 c21 -22 41 -40 44 -40 3 0 -13 18 -34 40 -21 22 -41 40
-44 40 -3 0 13 -18 34 -40z" />
    <path d="M15 380 c0 -212 1 -298 2 -193 2 106 2 280 0 385 -1 106 -2 20 -2
-192z" />
    <path d="M13075 410 c33 -33 62 -60 64 -60 3 0 -21 27 -54 60 -33 33 -62 60
-64 60 -3 0 21 -27 54 -60z" />
    <path d="M10638 33 c45 -2 119 -2 165 0 45 1 8 3 -83 3 -91 0 -128 -2 -82 -3z" />
    <path d="M8398 23 c46 -2 118 -2 160 0 42 1 5 3 -83 3 -88 0 -123 -2 -77 -3z" />
    <path d="M3918 13 c45 -2 119 -2 165 0 45 1 8 3 -83 3 -91 0 -128 -2 -82 -3z" />
    <path d="M1678 3 c46 -2 118 -2 160 0 42 1 5 3 -83 3 -88 0 -123 -2 -77 -3z" />
  </g>
  <g transform="translate(0.000000,1341.000000) scale(0.100000,-0.100000)" fill="#a1a3c6" stroke="none">
    <path d="M25 11820 c0 -228 1 -322 2 -207 2 114 2 300 0 415 -1 114 -2 20 -2
-208z" />
    <path d="M2095 11321 c33 -41 106 -113 110 -109 3 2 -26 33 -62 69 -37 35 -58
53 -48 40z" />
    <path d="M3394 10028 l-7 -11 11 7 c12 7 16 16 8 16 -3 0 -8 -5 -12 -12z" />
    <path d="M3414 10008 l-7 -11 11 7 c12 7 16 16 8 16 -3 0 -8 -5 -12 -12z" />
    <path d="M3434 9988 l-7 -11 11 7 c12 7 16 16 8 16 -3 0 -8 -5 -12 -12z" />
    <path d="M3454 9968 l-7 -11 11 7 c7 4 12 9 12 12 0 8 -9 4 -16 -8z" />
    <path d="M3474 9948 l-7 -11 11 7 c12 7 16 16 8 16 -3 0 -8 -5 -12 -12z" />
    <path d="M3494 9928 l-7 -11 11 7 c12 7 16 16 8 16 -3 0 -8 -5 -12 -12z" />
    <path d="M4694 8738 l-7 -11 11 7 c12 7 16 16 8 16 -3 0 -8 -5 -12 -12z" />
    <path d="M4714 8718 l-7 -11 11 7 c12 7 16 16 8 16 -3 0 -8 -5 -12 -12z" />
    <path d="M4734 8698 l-7 -11 11 7 c12 7 16 16 8 16 -3 0 -8 -5 -12 -12z" />
    <path d="M4754 8678 l-7 -11 11 7 c12 7 16 16 8 16 -3 0 -8 -5 -12 -12z" />
    <path d="M4774 8658 l-7 -11 11 7 c12 7 16 16 8 16 -3 0 -8 -5 -12 -12z" />
    <path d="M4794 8638 l-7 -11 11 7 c12 7 16 16 8 16 -3 0 -8 -5 -12 -12z" />
    <path d="M4820 8620 c0 -5 5 -10 11 -10 5 0 7 5 4 10 -3 6 -8 10 -11 10 -2 0
-4 -4 -4 -10z" />
    <path d="M5994 7448 l-7 -11 11 7 c12 7 16 16 8 16 -3 0 -8 -5 -12 -12z" />
    <path d="M6096 7351 c-4 -5 -2 -12 3 -15 5 -4 12 -2 15 3 4 5 2 12 -3 15 -5 4
-12 2 -15 -3z" />
    <path d="M7356 6102 c-3 -5 3 -17 13 -26 l19 -17 6 9 c3 5 -3 17 -13 26 l-19
17 -6 -9z m25 -19 l14 -18 -17 14 c-10 7 -18 15 -18 17 0 8 8 3 21 -13z" />
    <path d="M8617 4853 c-4 -6 11 -27 32 -47 21 -21 41 -34 44 -29 4 6 -11 27
-32 47 -21 21 -41 34 -44 29z m43 -38 c19 -19 32 -35 29 -35 -3 0 -20 16 -39
35 -19 19 -32 35 -29 35 3 0 20 -16 39 -35z" />
    <path d="M9945 3520 c21 -22 41 -40 44 -40 3 0 -13 18 -34 40 -21 22 -41 40
-44 40 -3 0 13 -18 34 -40z" />
    <path d="M15 2875 c0 -231 1 -324 2 -207 2 117 2 306 0 420 -1 114 -2 18 -2
-213z" />
    <path d="M11250 2225 c19 -19 36 -35 39 -35 3 0 -10 16 -29 35 -19 19 -36 35
-39 35 -3 0 10 -16 29 -35z" />
    <path d="M11355 2120 c10 -11 20 -20 23 -20 3 0 -3 9 -13 20 -10 11 -20 20
-23 20 -3 0 3 -9 13 -20z" />
    <path d="M12560 925 c13 -14 26 -25 28 -25 3 0 -5 11 -18 25 -13 14 -26 25
-28 25 -3 0 5 -11 18 -25z" />
    <path d="M12645 840 c27 -27 51 -50 54 -50 3 0 -17 23 -44 50 -27 28 -51 50
-54 50 -3 0 17 -22 44 -50z" />
    <path d="M11348 33 c34 -2 88 -2 120 0 31 2 3 3 -63 3 -66 0 -92 -1 -57 -3z" />
    <path d="M9103 23 c31 -2 83 -2 115 0 31 2 5 3 -58 3 -63 0 -89 -1 -57 -3z" />
    <path d="M4628 13 c34 -2 88 -2 120 0 31 2 3 3 -63 3 -66 0 -92 -1 -57 -3z" />
    <path d="M2383 3 c31 -2 83 -2 115 0 31 2 5 3 -58 3 -63 0 -89 -1 -57 -3z" />
  </g>
  <g transform="translate(0.000000,1341.000000) scale(0.100000,-0.100000)" fill="#e2e7e9" stroke="none">
    <path d="M385 13010 c16 -16 30 -28 33 -26 5 6 -44 56 -54 56 -4 0 5 -13 21
-30z" />
    <path d="M11263 12193 c37 -2 97 -2 135 0 37 2 6 3 -68 3 -74 0 -105 -1 -67
-3z" />
    <path d="M11955 12190 c3 -5 8 -10 11 -10 2 0 4 5 4 10 0 6 -5 10 -11 10 -5 0
-7 -4 -4 -10z" />
    <path d="M7903 12183 c37 -2 97 -2 135 0 37 2 6 3 -68 3 -74 0 -105 -1 -67 -3z" />
    <path d="M1247 12173 c-3 -5 18 -7 46 -5 86 5 96 9 25 11 -37 0 -69 -2 -71 -6z" />
    <path d="M1340 12066 c0 -2 8 -10 18 -17 l17 -14 -14 18 c-13 16 -21 21 -21
13z" />
    <path d="M1525 11882 c82 -84 154 -152 160 -152 11 0 -193 205 -263 264 -26
22 20 -29 103 -112z" />
    <path d="M11964 11240 c0 -58 1 -81 3 -52 2 28 2 76 0 105 -2 28 -3 5 -3 -53z" />
    <path d="M2285 11130 c3 -5 8 -10 11 -10 3 0 2 5 -1 10 -3 6 -8 10 -11 10 -3
0 -2 -4 1 -10z" />
    <path d="M2310 11106 c0 -2 8 -10 18 -17 l17 -14 -14 18 c-13 16 -21 21 -21
13z" />
    <path d="M2985 10430 c21 -22 41 -37 44 -35 6 7 -60 75 -73 75 -6 0 7 -18 29
-40z" />
    <path d="M3160 10267 c0 -13 91 -99 97 -93 4 3 4 7 2 9 -2 1 -26 22 -52 47
-26 24 -47 41 -47 37z" />
    <path d="M4070 9367 c0 -4 25 -32 55 -62 30 -31 55 -51 55 -45 0 7 -6 17 -13
23 -7 7 -32 30 -55 52 -23 21 -42 36 -42 32z" />
    <path d="M4250 9185 c0 -6 17 -28 38 -48 l39 -38 0 15 c0 8 -5 14 -11 13 -6
-1 -10 4 -8 11 1 6 -4 11 -10 10 -7 -2 -12 3 -10 10 1 8 -2 11 -7 8 -5 -4 -14
2 -20 11 -6 10 -11 13 -11 8z" />
    <path d="M11954 8555 c0 -60 1 -84 3 -52 2 32 2 81 0 110 -2 29 -3 3 -3 -58z" />
    <path d="M5040 8405 c30 -30 57 -55 59 -55 3 0 -19 25 -49 55 -30 30 -57 55
-59 55 -3 0 19 -25 49 -55z" />
    <path d="M5550 7895 c0 -6 17 -28 38 -48 l39 -38 0 15 c0 8 -5 14 -11 13 -6
-1 -10 4 -8 11 1 6 -4 11 -10 10 -7 -2 -12 3 -10 10 1 8 -2 11 -7 8 -5 -4 -14
2 -20 11 -6 10 -11 13 -11 8z" />
    <path d="M5935 7510 l-6 -10 13 2 c7 2 12 -3 11 -9 -2 -7 3 -12 10 -10 l12 2
-3 -15 c-2 -8 0 -12 4 -7 4 4 17 -1 28 -10 12 -10 3 2 -19 25 -21 23 -40 42
-41 42 -2 0 -6 -5 -9 -10z" />
    <path d="M6863 6596 c0 -8 19 -34 42 -56 l42 -41 0 15 c0 8 -19 34 -42 56
l-42 41 0 -15z m47 -41 c19 -19 32 -35 29 -35 -3 0 -20 16 -39 35 -19 19 -32
35 -29 35 3 0 20 -16 39 -35z" />
    <path d="M7770 5704 c0 -9 81 -86 86 -81 2 2 -16 23 -41 46 -25 23 -45 39 -45
35z" />
    <path d="M8180 5275 c25 -29 61 -65 66 -65 1 0 1 7 0 15 -3 17 -37 57 -44 50
-3 -3 -15 3 -26 12 l-21 18 25 -30z m45 -25 c10 -11 16 -20 13 -20 -3 0 -13 9
-23 20 -10 11 -16 20 -13 20 3 0 13 -9 23 -20z" />
    <path d="M14 5055 c0 -82 2 -115 3 -72 2 43 2 110 0 150 -1 40 -3 5 -3 -78z" />
    <path d="M8702 4775 c27 -25 51 -45 55 -45 5 0 -13 20 -39 45 -27 25 -51 45
-55 45 -5 0 13 -20 39 -45z" />
    <path d="M9473 4003 l-13 -5 51 -49 c28 -27 52 -49 53 -49 1 0 3 7 3 15 0 20
-79 94 -94 88z m52 -43 c21 -22 37 -40 34 -40 -3 0 -23 18 -44 40 -21 22 -37
40 -34 40 3 0 23 -18 44 -40z" />
    <path d="M9584 3895 c1 -8 12 -26 25 -39 l23 -25 15 6 15 6 -4 -14 c-2 -8 0
-16 5 -17 28 -8 22 4 -22 48 -28 28 -53 50 -55 50 -2 0 -3 -7 -2 -15z m36 -30
c13 -14 21 -25 18 -25 -2 0 -15 11 -28 25 -13 14 -21 25 -18 25 2 0 15 -11 28
-25z" />
    <path d="M10534 2963 c28 -29 52 -50 55 -48 2 3 2 6 0 8 -2 1 -27 22 -54 47
l-50 45 49 -52z" />
    <path d="M10780 2696 c0 -8 78 -86 86 -86 9 0 3 7 -41 50 -25 24 -45 41 -45
36z" />
    <path d="M11454 2053 c28 -29 52 -50 55 -48 2 3 2 6 0 8 -2 1 -27 22 -54 47
l-50 45 49 -52z" />
    <path d="M12130 1350 c28 -27 54 -50 58 -50 3 0 -16 23 -43 50 -27 28 -53 50
-58 50 -4 0 15 -22 43 -50z" />
    <path d="M13400 96 c0 -11 30 -39 36 -34 2 3 -5 13 -16 23 -11 10 -20 15 -20
11z" />
    <path d="M11918 33 c12 -2 32 -2 45 0 12 2 2 4 -23 4 -25 0 -35 -2 -22 -4z" />
    <path d="M9683 23 c15 -2 37 -2 50 0 12 2 0 4 -28 4 -27 0 -38 -2 -22 -4z" />
    <path d="M5198 13 c12 -2 32 -2 45 0 12 2 2 4 -23 4 -25 0 -35 -2 -22 -4z" />
    <path d="M2963 3 c15 -2 37 -2 50 0 12 2 0 4 -28 4 -27 0 -38 -2 -22 -4z" />
  </g>
  <g transform="translate(0.000000,1341.000000) scale(0.100000,-0.100000)" fill="#bdbed7" stroke="none">
    <path d="M24 12555 c0 -187 2 -262 3 -167 2 95 2 248 0 340 -1 92 -3 14 -3
-173z" />
    <path d="M1960 11455 c0 -6 49 -55 101 -100 19 -16 5 1 -31 38 -35 37 -66 67
-67 67 -2 0 -3 -2 -3 -5z" />
    <path d="M3264 10158 l-7 -11 11 7 c12 7 16 16 8 16 -3 0 -8 -5 -12 -12z" />
    <path d="M3284 10138 l-7 -11 11 7 c7 4 12 9 12 12 0 8 -9 4 -16 -8z" />
    <path d="M3304 10118 l-7 -11 11 7 c12 7 16 16 8 16 -3 0 -8 -5 -12 -12z" />
    <path d="M3330 10106 c0 -11 30 -39 36 -34 2 3 -5 13 -16 23 -11 10 -20 15
-20 11z" />
    <path d="M3374 10048 l-7 -11 11 7 c12 7 16 16 8 16 -3 0 -8 -5 -12 -12z" />
    <path d="M4564 8868 l-7 -11 11 7 c12 7 16 16 8 16 -3 0 -8 -5 -12 -12z" />
    <path d="M4584 8848 l-7 -11 11 7 c12 7 16 16 8 16 -3 0 -8 -5 -12 -12z" />
    <path d="M4604 8828 l-7 -11 11 7 c12 7 16 16 8 16 -3 0 -8 -5 -12 -12z" />
    <path d="M4634 8798 l-7 -11 11 7 c12 7 16 16 8 16 -3 0 -8 -5 -12 -12z" />
    <path d="M4654 8778 l-7 -11 11 7 c12 7 16 16 8 16 -3 0 -8 -5 -12 -12z" />
    <path d="M4674 8758 l-7 -11 11 7 c12 7 16 16 8 16 -3 0 -8 -5 -12 -12z" />
    <path d="M5895 7540 c10 -11 20 -18 23 -16 5 6 -23 36 -34 36 -4 0 1 -9 11
-20z" />
    <path d="M7186 6259 c15 -16 31 -26 36 -23 l10 6 -21 22 c-12 13 -28 23 -36
23 l-16 0 27 -28z m19 1 c10 -11 16 -20 13 -20 -3 0 -13 9 -23 20 -10 11 -16
20 -13 20 3 0 13 -9 23 -20z" />
    <path d="M8491 4964 c12 -13 26 -21 31 -18 l9 6 -15 17 c-9 10 -23 18 -31 18
l-15 0 21 -23z m20 -1 l14 -18 -17 14 c-10 7 -18 15 -18 17 0 8 8 3 21 -13z" />
    <path d="M14 3615 c0 -187 2 -262 3 -167 2 95 2 248 0 340 -1 92 -3 14 -3
-173z" />
    <path d="M9785 3680 c3 -5 8 -10 11 -10 3 0 2 5 -1 10 -3 6 -8 10 -11 10 -3 0
-2 -4 1 -10z" />
    <path d="M9890 3575 c13 -14 26 -25 28 -25 3 0 -5 11 -18 25 -13 14 -26 25
-28 25 -3 0 5 -11 18 -25z" />
    <path d="M11175 2300 c27 -27 51 -50 54 -50 3 0 -17 23 -44 50 -27 28 -51 50
-54 50 -3 0 17 -22 44 -50z" />
    <path d="M12475 1010 c38 -38 72 -70 74 -70 3 0 -26 32 -64 70 -38 39 -72 70
-74 70 -3 0 26 -31 64 -70z" />
    <path d="M11553 33 c26 -2 67 -2 90 0 23 2 2 3 -48 3 -49 0 -68 -1 -42 -3z" />
    <path d="M9303 23 c26 -2 68 -2 95 0 26 2 4 3 -48 3 -52 0 -74 -1 -47 -3z" />
    <path d="M4833 13 c26 -2 67 -2 90 0 23 2 2 3 -48 3 -49 0 -68 -1 -42 -3z" />
    <path d="M2583 3 c26 -2 68 -2 95 0 26 2 4 3 -48 3 -52 0 -74 -1 -47 -3z" />
  </g>
  <g transform="translate(0.000000,1341.000000) scale(0.100000,-0.100000)" fill="#191e73" stroke="none">
    <path d="M205 13190 c3 -5 8 -10 11 -10 3 0 2 5 -1 10 -3 6 -8 10 -11 10 -3 0
-2 -4 1 -10z" />
    <path d="M390 13008 c24 -27 45 -48 47 -48 8 0 0 9 -44 50 l-48 45 45 -47z" />
    <path d="M1550 11867 c0 -3 52 -60 115 -124 63 -65 115 -113 115 -108 0 6 -52
62 -115 125 -63 63 -115 111 -115 107z" />
    <path d="M2870 10557 c0 -10 70 -80 75 -75 3 2 -13 22 -35 43 -22 22 -40 36
-40 32z" />
    <path d="M2960 10467 c0 -4 36 -44 80 -90 44 -45 80 -77 80 -72 0 6 -36 46
-80 90 -44 44 -80 76 -80 72z" />
    <path d="M4380 9045 c35 -36 67 -65 69 -65 3 0 -24 29 -59 65 -35 36 -67 65
-69 65 -3 0 24 -29 59 -65z" />
    <path d="M5651 7783 c45 -48 48 -51 100 -98 24 -22 6 0 -41 48 -46 48 -87 87
-89 87 -3 0 11 -17 30 -37z" />
    <path d="M24 7010 c0 -184 2 -260 3 -167 2 92 2 242 0 335 -1 92 -3 16 -3
-168z" />
    <path d="M6864 6588 l-7 -11 11 7 c12 7 16 16 8 16 -3 0 -8 -5 -12 -12z" />
    <path d="M6884 6568 l-7 -11 11 7 c7 4 12 9 12 12 0 8 -9 4 -16 -8z" />
    <path d="M6904 6548 l-7 -11 11 7 c7 4 12 9 12 12 0 8 -9 4 -16 -8z" />
    <path d="M6924 6528 l-7 -11 11 7 c12 7 16 16 8 16 -3 0 -8 -5 -12 -12z" />
    <path d="M6940 6507 c0 -4 15 -22 33 -40 19 -18 56 -54 84 -80 l50 -48 0 15
c0 8 -5 14 -11 13 -6 -1 -10 4 -8 11 1 6 -4 11 -10 10 -7 -2 -12 3 -10 10 1 6
-4 11 -10 10 l-13 -3 3 15 c2 8 0 12 -4 7 -4 -4 -29 14 -56 40 -26 26 -48 44
-48 40z" />
    <path d="M8184 5278 l-7 -11 11 7 c12 7 16 16 8 16 -3 0 -8 -5 -12 -12z" />
    <path d="M8240 5217 c0 -7 181 -187 189 -187 2 0 -3 8 -12 18 -10 10 -14 22
-10 26 5 4 1 6 -7 4 l-15 -3 3 13 c1 6 -4 11 -10 10 -7 -2 -12 3 -10 10 1 6
-4 11 -10 10 l-13 -3 3 15 c2 8 0 12 -4 7 -4 -4 -29 14 -56 40 -26 26 -48 44
-48 40z" />
    <path d="M9560 3908 c0 -9 201 -210 206 -206 2 2 -44 51 -101 108 -58 58 -105
102 -105 98z" />
    <path d="M10860 2618 c0 -9 221 -231 225 -226 3 2 -47 55 -110 118 -63 63
-115 112 -115 108z" />
    <path d="M12180 1306 c0 -10 201 -209 206 -204 2 3 -43 51 -101 108 -58 56
-105 100 -105 96z" />
    <path d="M10133 33 c32 -2 81 -2 110 0 29 2 3 3 -58 3 -60 0 -84 -1 -52 -3z" />
    <path d="M7893 23 c32 -2 81 -2 110 0 29 2 3 3 -58 3 -60 0 -84 -1 -52 -3z" />
    <path d="M3413 13 c32 -2 81 -2 110 0 29 2 3 3 -58 3 -60 0 -84 -1 -52 -3z" />
    <path d="M1173 3 c32 -2 81 -2 110 0 29 2 3 3 -58 3 -60 0 -84 -1 -52 -3z" />
  </g>
  <g transform="translate(0.000000,1341.000000) scale(0.100000,-0.100000)" fill="#dae2e4" stroke="none">
    <path d="M11508 12193 c34 -2 90 -2 125 0 34 2 6 3 -63 3 -69 0 -97 -1 -62 -3z" />
    <path d="M8148 12183 c34 -2 90 -2 125 0 34 2 6 3 -63 3 -69 0 -97 -1 -62 -3z" />
    <path d="M1428 12173 c34 -2 90 -2 125 0 34 2 6 3 -63 3 -69 0 -97 -1 -62 -3z" />
    <path d="M1310 12095 c19 -19 36 -35 39 -35 3 0 -10 16 -29 35 -19 19 -36 35
-39 35 -3 0 10 -16 29 -35z" />
    <path d="M1690 11726 c0 -10 50 -59 56 -54 2 3 -10 17 -26 33 -17 16 -30 25
-30 21z" />
    <path d="M11964 11425 c0 -55 1 -76 3 -47 2 29 2 74 0 100 -2 26 -3 2 -3 -53z" />
    <path d="M2230 11185 c19 -19 36 -35 39 -35 3 0 -10 16 -29 35 -19 19 -36 35
-39 35 -3 0 10 -16 29 -35z" />
    <path d="M3030 10396 c0 -11 30 -39 36 -34 2 3 -5 13 -16 23 -11 10 -20 15
-20 11z" />
    <path d="M3110 10314 c0 -6 17 -23 45 -44 11 -8 7 0 -9 18 -30 32 -36 37 -36
26z" />
    <path d="M4024 9398 l-7 -11 11 7 c12 7 16 16 8 16 -3 0 -8 -5 -12 -12z" />
    <path d="M4044 9378 l-7 -11 11 7 c12 7 16 16 8 16 -3 0 -8 -5 -12 -12z" />
    <path d="M4070 9360 c0 -7 3 -10 7 -7 3 4 3 10 0 14 -4 3 -7 0 -7 -7z" />
    <path d="M4334 9098 l-7 -11 11 7 c7 4 12 9 12 12 0 8 -9 4 -16 -8z" />
    <path d="M4354 9078 l-7 -11 11 7 c12 7 16 16 8 16 -3 0 -8 -5 -12 -12z" />
    <path d="M11954 8745 c0 -55 1 -76 3 -47 2 29 2 74 0 100 -2 26 -3 2 -3 -53z" />
    <path d="M5634 7808 l-7 -11 11 7 c12 7 16 16 8 16 -3 0 -8 -5 -12 -12z" />
    <path d="M5654 7788 l-7 -11 11 7 c12 7 16 16 8 16 -3 0 -8 -5 -12 -12z" />
    <path d="M5844 7598 l-7 -11 11 7 c12 7 16 16 8 16 -3 0 -8 -5 -12 -12z" />
    <path d="M5864 7578 l-7 -11 11 7 c12 7 16 16 8 16 -3 0 -8 -5 -12 -12z" />
    <path d="M6946 6512 c-3 -5 5 -19 18 -31 l23 -21 0 15 c0 8 -8 22 -18 31 l-17
15 -6 -9z m25 -19 l14 -18 -17 14 c-10 7 -18 15 -18 17 0 8 8 3 21 -13z" />
    <path d="M8246 5222 c-3 -5 5 -19 18 -31 l23 -21 0 15 c0 8 -8 22 -18 31 l-17
15 -6 -9z m25 -19 l14 -18 -17 14 c-10 7 -18 15 -18 17 0 8 8 3 21 -13z" />
    <path d="M13 4845 c0 -44 2 -61 4 -37 2 23 2 59 0 80 -2 20 -4 1 -4 -43z" />
    <path d="M8637 4840 c18 -19 34 -32 36 -29 2 2 -12 17 -32 33 l-36 30 32 -34z" />
    <path d="M9538 3949 c18 -19 30 -38 27 -40 -3 -3 7 -16 22 -30 l28 -24 -18 21
c-10 12 -15 24 -10 25 4 2 -12 22 -37 44 l-45 39 33 -35z" />
    <path d="M11944 3385 c0 -49 1 -71 3 -48 2 23 2 64 0 90 -2 26 -3 8 -3 -42z" />
    <path d="M10454 3043 c22 -24 42 -40 45 -38 2 3 2 6 0 8 -2 1 -22 18 -44 37
l-40 35 39 -42z" />
    <path d="M10880 2595 c13 -14 26 -25 28 -25 3 0 -5 11 -18 25 -13 14 -26 25
-28 25 -3 0 5 -11 18 -25z" />
    <path d="M11405 2100 c3 -5 8 -10 11 -10 3 0 2 5 -1 10 -3 6 -8 10 -11 10 -3
0 -2 -4 1 -10z" />
    <path d="M12205 1280 c3 -5 8 -10 11 -10 3 0 2 5 -1 10 -3 6 -8 10 -11 10 -3
0 -2 -4 1 -10z" />
    <path d="M11878 33 c6 -2 18 -2 25 0 6 3 1 5 -13 5 -14 0 -19 -2 -12 -5z" />
    <path d="M9638 23 c6 -2 18 -2 25 0 6 3 1 5 -13 5 -14 0 -19 -2 -12 -5z" />
    <path d="M5158 13 c6 -2 18 -2 25 0 6 3 1 5 -13 5 -14 0 -19 -2 -12 -5z" />
    <path d="M2918 3 c6 -2 18 -2 25 0 6 3 1 5 -13 5 -14 0 -19 -2 -12 -5z" />
  </g>
  <g transform="translate(0.000000,1341.000000) scale(0.100000,-0.100000)" fill="#9092bb" stroke="none">
    <path d="M24 11135 c0 -159 2 -223 3 -142 2 82 2 212 0 290 -1 78 -3 12 -3
-148z" />
    <path d="M2260 11156 c0 -2 8 -10 18 -17 l17 -14 -14 18 c-13 16 -21 21 -21
13z" />
    <path d="M3520 9916 c0 -10 50 -59 56 -54 2 3 -10 17 -26 33 -17 16 -30 25
-30 21z" />
    <path d="M3584 9838 l-7 -11 11 7 c12 7 16 16 8 16 -3 0 -8 -5 -12 -12z" />
    <path d="M4844 8588 l-7 -11 11 7 c12 7 16 16 8 16 -3 0 -8 -5 -12 -12z" />
    <path d="M4864 8568 l-7 -11 11 7 c12 7 16 16 8 16 -3 0 -8 -5 -12 -12z" />
    <path d="M4884 8548 l-7 -11 11 7 c12 7 16 16 8 16 -3 0 -8 -5 -12 -12z" />
    <path d="M4904 8528 l-7 -11 11 7 c12 7 16 16 8 16 -3 0 -8 -5 -12 -12z" />
    <path d="M10110 3355 c19 -19 36 -35 39 -35 3 0 -10 16 -29 35 -19 19 -36 35
-39 35 -3 0 10 -16 29 -35z" />
    <path d="M14 2195 c0 -154 2 -216 3 -137 2 79 2 205 0 280 -1 75 -3 11 -3
-143z" />
    <path d="M11410 2068 c41 -45 50 -53 50 -45 0 2 -21 23 -47 47 l-48 45 45 -47z" />
    <path d="M12720 765 c19 -19 36 -35 39 -35 3 0 -10 16 -29 35 -19 19 -36 35
-39 35 -3 0 10 -16 29 -35z" />
    <path d="M11193 33 c20 -2 54 -2 75 0 20 2 3 4 -38 4 -41 0 -58 -2 -37 -4z" />
    <path d="M8953 23 c20 -2 54 -2 75 0 20 2 3 4 -38 4 -41 0 -58 -2 -37 -4z" />
    <path d="M4473 13 c20 -2 54 -2 75 0 20 2 3 4 -38 4 -41 0 -58 -2 -37 -4z" />
    <path d="M2233 3 c20 -2 54 -2 75 0 20 2 3 4 -38 4 -41 0 -58 -2 -37 -4z" />
  </g>
  <g transform="translate(0.000000,1341.000000) scale(0.100000,-0.100000)" fill="#2f3481" stroke="none">
    <path d="M180 13216 c0 -2 8 -10 18 -17 l17 -14 -14 18 c-13 16 -21 21 -21 13z" />
    <path d="M1489 11920 c28 -27 54 -50 58 -50 4 0 -15 23 -42 50 -27 28 -53 50
-58 50 -5 0 14 -22 42 -50z" />
    <path d="M2720 10700 c0 -5 5 -10 11 -10 5 0 7 5 4 10 -3 6 -8 10 -11 10 -2 0
-4 -4 -4 -10z" />
    <path d="M2744 10668 l-7 -11 11 7 c7 4 12 9 12 12 0 8 -9 4 -16 -8z" />
    <path d="M2770 10657 c0 -10 90 -100 95 -95 3 2 -18 26 -45 53 -28 27 -50 46
-50 42z" />
    <path d="M24 7650 c0 -179 2 -252 3 -162 2 89 2 235 0 325 -1 89 -3 16 -3
-163z" />
    <path d="M8144 5318 l-7 -11 11 7 c7 4 12 9 12 12 0 8 -9 4 -16 -8z" />
    <path d="M8164 5298 l-7 -11 11 7 c7 4 12 9 12 12 0 8 -9 4 -16 -8z" />
    <path d="M9444 4028 l-7 -11 11 7 c7 4 12 9 12 12 0 8 -9 4 -16 -8z" />
    <path d="M10715 2750 c3 -5 8 -10 11 -10 3 0 2 5 -1 10 -3 6 -8 10 -11 10 -3
0 -2 -4 1 -10z" />
    <path d="M11970 1507 c0 -2 15 -16 33 -33 l32 -29 -29 33 c-28 30 -36 37 -36
29z" />
    <path d="M13285 200 c10 -11 20 -20 23 -20 3 0 -3 9 -13 20 -10 11 -20 20 -23
20 -3 0 3 -9 13 -20z" />
    <path d="M10323 33 c26 -2 67 -2 90 0 23 2 2 3 -48 3 -49 0 -68 -1 -42 -3z" />
    <path d="M8083 23 c26 -2 67 -2 90 0 23 2 2 3 -48 3 -49 0 -68 -1 -42 -3z" />
    <path d="M3603 13 c26 -2 67 -2 90 0 23 2 2 3 -48 3 -49 0 -68 -1 -42 -3z" />
    <path d="M1363 3 c26 -2 67 -2 90 0 23 2 2 3 -48 3 -49 0 -68 -1 -42 -3z" />
  </g>
  <g transform="translate(0.000000,1341.000000) scale(0.100000,-0.100000)" fill="#a2bdb6" stroke="none">
    <path d="M9863 12183 c37 -2 97 -2 135 0 37 2 6 3 -68 3 -74 0 -105 -1 -67 -3z" />
    <path d="M3143 12173 c37 -2 97 -2 135 0 37 2 6 3 -68 3 -74 0 -105 -1 -67 -3z" />
    <path d="M1640 11776 c0 -2 8 -10 18 -17 l17 -14 -14 18 c-13 16 -21 21 -21
13z" />
    <path d="M1715 11700 c21 -22 41 -40 44 -40 3 0 -13 18 -34 40 -21 22 -41 40
-44 40 -3 0 13 -18 34 -40z" />
    <path d="M2611 10813 c18 -23 51 -53 57 -53 3 0 -9 16 -28 35 -36 37 -52 47
-29 18z" />
    <path d="M11954 10115 c0 -60 1 -84 3 -52 2 32 2 81 0 110 -2 29 -3 3 -3 -58z" />
    <path d="M3520 9917 c0 -2 15 -16 33 -33 l32 -29 -29 33 c-28 30 -36 37 -36
29z" />
    <path d="M4374 9058 l-7 -11 11 7 c7 4 12 9 12 12 0 8 -9 4 -16 -8z" />
    <path d="M4394 9038 l-7 -11 11 7 c12 7 16 16 8 16 -3 0 -8 -5 -12 -12z" />
    <path d="M4415 9010 c3 -5 8 -10 11 -10 2 0 4 5 4 10 0 6 -5 10 -11 10 -5 0
-7 -4 -4 -10z" />
    <path d="M4444 8988 l-7 -11 11 7 c12 7 16 16 8 16 -3 0 -8 -5 -12 -12z" />
    <path d="M4464 8968 l-7 -11 11 7 c12 7 16 16 8 16 -3 0 -8 -5 -12 -12z" />
    <path d="M7144 6315 c2 -17 26 -44 26 -30 0 5 12 -2 28 -16 15 -13 9 -5 -13
19 -21 23 -40 42 -41 42 -1 0 -1 -7 0 -15z m21 -15 c3 -5 4 -10 1 -10 -3 0 -8
5 -11 10 -3 6 -4 10 -1 10 3 0 8 -4 11 -10z" />
    <path d="M8060 5415 c35 -36 67 -65 69 -65 3 0 -24 29 -59 65 -35 36 -67 65
-69 65 -3 0 24 -29 59 -65z" />
    <path d="M11944 4755 c0 -60 1 -84 3 -52 2 32 2 81 0 110 -2 29 -3 3 -3 -58z" />
    <path d="M8970 4515 c35 -36 67 -65 69 -65 3 0 -24 29 -59 65 -35 36 -67 65
-69 65 -3 0 24 -29 59 -65z" />
    <path d="M9820 3677 c0 -2 15 -16 33 -33 l32 -29 -29 33 c-28 30 -36 37 -36
29z" />
    <path d="M11934 2075 c0 -60 1 -84 3 -52 2 32 2 81 0 110 -2 29 -3 3 -3 -58z" />
  </g>
  <g transform="translate(0.000000,1341.000000) scale(0.100000,-0.100000)" fill="#d3dfdc" stroke="none">
    <path d="M11743 12193 c37 -2 97 -2 135 0 37 2 6 3 -68 3 -74 0 -105 -1 -67
-3z" />
    <path d="M8383 12183 c37 -2 97 -2 135 0 37 2 6 3 -68 3 -74 0 -105 -1 -67 -3z" />
    <path d="M1663 12173 c37 -2 97 -2 135 0 37 2 6 3 -68 3 -74 0 -105 -1 -67 -3z" />
    <path d="M1260 12146 c0 -2 8 -10 18 -17 l17 -14 -14 18 c-13 16 -21 21 -21
13z" />
    <path d="M11964 11615 c0 -60 1 -84 3 -52 2 32 2 81 0 110 -2 29 -3 3 -3 -58z" />
    <path d="M2170 11245 c19 -19 36 -35 39 -35 3 0 -10 16 -29 35 -19 19 -36 35
-39 35 -3 0 10 -16 29 -35z" />
    <path d="M3055 10370 c33 -40 65 -71 65 -62 0 4 -19 26 -42 47 -23 22 -34 29
-23 15z" />
    <path d="M3960 9476 c0 -11 30 -39 36 -34 2 3 -5 13 -16 23 -11 10 -20 15 -20
11z" />
    <path d="M4004 9418 l-7 -11 11 7 c12 7 16 16 8 16 -3 0 -8 -5 -12 -12z" />
    <path d="M11954 8935 c0 -60 1 -84 3 -52 2 32 2 81 0 110 -2 29 -3 3 -3 -58z" />
    <path d="M5784 7658 l-7 -11 11 7 c12 7 16 16 8 16 -3 0 -8 -5 -12 -12z" />
    <path d="M5804 7638 l-7 -11 11 7 c12 7 16 16 8 16 -3 0 -8 -5 -12 -12z" />
    <path d="M5824 7618 l-7 -11 11 7 c12 7 16 16 8 16 -3 0 -8 -5 -12 -12z" />
    <path d="M8525 4950 c3 -5 8 -10 11 -10 3 0 2 5 -1 10 -3 6 -8 10 -11 10 -3 0
-2 -4 1 -10z" />
    <path d="M9475 4010 c21 -22 41 -40 44 -40 3 0 -13 18 -34 40 -21 22 -41 40
-44 40 -3 0 13 -18 34 -40z" />
    <path d="M11944 3570 c0 -63 1 -89 3 -57 2 31 2 83 0 115 -2 31 -3 5 -3 -58z" />
    <path d="M10370 3127 c0 -2 15 -16 33 -33 l32 -29 -29 33 c-28 30 -36 37 -36
29z" />
    <path d="M11325 2180 c10 -11 20 -20 23 -20 3 0 -3 9 -13 20 -10 11 -20 20
-23 20 -3 0 3 -9 13 -20z" />
  </g>
  <g transform="translate(0.000000,1341.000000) scale(0.100000,-0.100000)" fill="#c8c9dd" stroke="none">
    <path d="M24 13095 c0 -121 2 -169 3 -107 2 62 2 161 0 220 -1 59 -3 8 -3
-113z" />
    <path d="M1885 11530 c33 -40 66 -72 70 -68 3 2 -17 24 -42 49 -26 24 -39 33
-28 19z" />
    <path d="M3160 10260 c0 -7 3 -10 7 -7 3 4 3 10 0 14 -4 3 -7 0 -7 -7z" />
    <path d="M3244 10178 l-7 -11 11 7 c12 7 16 16 8 16 -3 0 -8 -5 -12 -12z" />
    <path d="M4484 8948 l-7 -11 11 7 c12 7 16 16 8 16 -3 0 -8 -5 -12 -12z" />
    <path d="M4504 8928 l-7 -11 11 7 c12 7 16 16 8 16 -3 0 -8 -5 -12 -12z" />
    <path d="M4524 8908 l-7 -11 11 7 c12 7 16 16 8 16 -3 0 -8 -5 -12 -12z" />
    <path d="M4544 8888 l-7 -11 11 7 c12 7 16 16 8 16 -3 0 -8 -5 -12 -12z" />
    <path d="M7140 6306 c0 -2 8 -10 18 -17 l17 -14 -14 18 c-13 16 -21 21 -21 13z" />
    <path d="M8407 5063 c-4 -6 11 -27 32 -47 21 -21 41 -34 44 -29 4 6 -11 27
-32 47 -21 21 -41 34 -44 29z m43 -38 c19 -19 32 -35 29 -35 -3 0 -20 16 -39
35 -19 19 -32 35 -29 35 3 0 20 -16 39 -35z" />
    <path d="M14 4155 c0 -121 2 -169 3 -107 2 62 2 161 0 220 -1 59 -3 8 -3 -113z" />
    <path d="M9735 3730 c27 -27 51 -50 54 -50 3 0 -17 23 -44 50 -27 28 -51 50
-54 50 -3 0 17 -22 44 -50z" />
    <path d="M11045 2430 c27 -27 51 -50 54 -50 3 0 -17 23 -44 50 -27 28 -51 50
-54 50 -3 0 17 -22 44 -50z" />
    <path d="M12360 1125 c30 -30 57 -55 59 -55 3 0 -19 25 -49 55 -30 30 -57 55
-59 55 -3 0 19 -25 49 -55z" />
    <path d="M11698 33 c18 -2 45 -2 60 0 15 2 0 4 -33 4 -33 0 -45 -2 -27 -4z" />
    <path d="M9458 23 c17 -2 47 -2 65 0 17 2 3 4 -33 4 -36 0 -50 -2 -32 -4z" />
    <path d="M4978 13 c18 -2 45 -2 60 0 15 2 0 4 -33 4 -33 0 -45 -2 -27 -4z" />
    <path d="M2738 3 c17 -2 47 -2 65 0 17 2 3 4 -33 4 -36 0 -50 -2 -32 -4z" />
  </g>
  <g transform="translate(0.000000,1341.000000) scale(0.100000,-0.100000)" fill="#b3c9c3" stroke="none">
    <path d="M9353 12183 c43 -2 110 -2 150 0 40 1 5 3 -78 3 -82 0 -115 -2 -72
-3z" />
    <path d="M2633 12173 c43 -2 110 -2 150 0 40 1 5 3 -78 3 -82 0 -115 -2 -72
-3z" />
    <path d="M1855 11560 c10 -11 20 -20 23 -20 3 0 -3 9 -13 20 -10 11 -20 20
-23 20 -3 0 3 -9 13 -20z" />
    <path d="M1890 11527 c0 -2 15 -16 33 -33 l32 -29 -29 33 c-28 30 -36 37 -36
29z" />
    <path d="M2805 10620 c21 -22 41 -40 44 -40 3 0 -13 18 -34 40 -21 22 -41 40
-44 40 -3 0 13 -18 34 -40z" />
    <path d="M11954 9715 c0 -71 1 -99 3 -62 2 37 2 96 0 130 -2 34 -3 4 -3 -68z" />
    <path d="M3710 9727 c0 -2 15 -16 33 -33 l32 -29 -29 33 c-28 30 -36 37 -36
29z" />
    <path d="M7350 6117 c0 -2 15 -16 33 -33 l32 -29 -29 33 c-28 30 -36 37 -36
29z" />
    <path d="M8249 5226 c24 -24 42 -47 40 -52 -2 -4 5 -8 15 -10 l19 -3 -54 55
c-29 30 -56 54 -58 54 -3 0 14 -20 38 -44z" />
    <path d="M11944 4350 c0 -69 1 -97 3 -62 2 34 2 90 0 125 -2 34 -3 6 -3 -63z" />
    <path d="M9185 4300 c33 -33 62 -60 64 -60 3 0 -21 27 -54 60 -33 33 -62 60
-64 60 -3 0 21 -27 54 -60z" />
    <path d="M10060 3435 c13 -14 26 -25 28 -25 3 0 -5 11 -18 25 -13 14 -26 25
-28 25 -3 0 5 -11 18 -25z" />
    <path d="M11928 1689 c-2 -56 0 -103 5 -106 4 -2 7 43 7 101 0 58 -2 106 -4
106 -3 0 -6 -45 -8 -101z" />
  </g>
  <g transform="translate(0.000000,1341.000000) scale(0.100000,-0.100000)" fill="#abc3bc" stroke="none">
    <path d="M9623 12183 c37 -2 96 -2 130 0 34 2 4 3 -68 3 -71 0 -99 -1 -62 -3z" />
    <path d="M2903 12173 c37 -2 96 -2 130 0 34 2 4 3 -68 3 -71 0 -99 -1 -62 -3z" />
    <path d="M1750 11667 c0 -10 90 -100 95 -95 3 2 -18 26 -45 53 -28 27 -50 46
-50 42z" />
    <path d="M2660 10765 c0 -7 38 -45 65 -65 11 -8 2 5 -20 28 -39 42 -45 47 -45
37z" />
    <path d="M11954 9925 c0 -55 1 -76 3 -47 2 29 2 74 0 100 -2 26 -3 2 -3 -53z" />
    <path d="M7210 6256 c0 -2 8 -10 18 -17 l17 -14 -14 18 c-13 16 -21 21 -21 13z" />
    <path d="M8135 5340 c10 -11 20 -20 23 -20 3 0 -3 9 -13 20 -10 11 -20 20 -23
20 -3 0 3 -9 13 -20z" />
    <path d="M8190 5286 c0 -2 8 -10 18 -17 l17 -14 -14 18 c-13 16 -21 21 -21 13z" />
    <path d="M11944 4560 c0 -58 1 -81 3 -52 2 28 2 76 0 105 -2 28 -3 5 -3 -53z" />
    <path d="M9110 4375 c13 -14 26 -25 28 -25 3 0 -5 11 -18 25 -13 14 -26 25
-28 25 -3 0 5 -11 18 -25z" />
    <path d="M10025 3470 c10 -11 20 -20 23 -20 3 0 -3 9 -13 20 -10 11 -20 20
-23 20 -3 0 3 -9 13 -20z" />
    <path d="M11934 1880 c0 -58 1 -81 3 -52 2 28 2 76 0 105 -2 28 -3 5 -3 -53z" />
  </g>
  <g transform="translate(0.000000,1341.000000) scale(0.100000,-0.100000)" fill="#cad9d5" stroke="none">
    <path d="M11930 12196 c0 -2 9 -6 20 -9 l20 -5 -6 9 c-5 9 -34 13 -34 5z" />
    <path d="M8638 12183 c39 -2 105 -2 145 0 39 1 7 3 -73 3 -80 0 -112 -2 -72
-3z" />
    <path d="M1918 12173 c39 -2 105 -2 145 0 39 1 7 3 -73 3 -80 0 -112 -2 -72
-3z" />
    <path d="M1360 12046 c0 -2 8 -10 18 -17 l17 -14 -14 18 c-13 16 -21 21 -21
13z" />
    <path d="M11964 11825 c0 -66 1 -92 3 -57 2 34 2 88 0 120 -2 31 -3 3 -3 -63z" />
    <path d="M2120 11295 c13 -14 26 -25 28 -25 3 0 -5 11 -18 25 -13 14 -26 25
-28 25 -3 0 5 -11 18 -25z" />
    <path d="M3005 10420 c21 -22 41 -40 44 -40 3 0 -13 18 -34 40 -21 22 -41 40
-44 40 -3 0 13 -18 34 -40z" />
    <path d="M3910 9526 c58 -66 60 -68 60 -59 0 5 -21 29 -47 53 l-48 45 35 -39z" />
    <path d="M11954 9145 c0 -66 1 -92 3 -57 2 34 2 88 0 120 -2 31 -3 3 -3 -63z" />
    <path d="M4825 8620 c3 -5 8 -10 11 -10 3 0 2 5 -1 10 -3 6 -8 10 -11 10 -3 0
-2 -4 1 -10z" />
    <path d="M5715 7720 c3 -5 8 -10 11 -10 2 0 4 5 4 10 0 6 -5 10 -11 10 -5 0
-7 -4 -4 -10z" />
    <path d="M5744 7698 l-7 -11 11 7 c7 4 12 9 12 12 0 8 -9 4 -16 -8z" />
    <path d="M5764 7678 l-7 -11 11 7 c7 4 12 9 12 12 0 8 -9 4 -16 -8z" />
    <path d="M7575 5890 c10 -11 20 -20 23 -20 3 0 -3 9 -13 20 -10 11 -20 20 -23
20 -3 0 3 -9 13 -20z" />
    <path d="M8480 4998 c41 -45 50 -53 50 -45 0 2 -21 23 -47 47 l-48 45 45 -47z" />
    <path d="M9400 4088 c24 -27 45 -48 47 -48 8 0 0 9 -44 50 l-48 45 45 -47z" />
    <path d="M11944 3780 c0 -63 1 -89 3 -57 2 31 2 83 0 115 -2 31 -3 5 -3 -58z" />
    <path d="M10270 3226 c0 -2 8 -10 18 -17 l17 -14 -14 18 c-13 16 -21 21 -21
13z" />
  </g>
  <g transform="translate(0.000000,1341.000000) scale(0.100000,-0.100000)" fill="#d5d5e5" stroke="none">
    <path d="M23 13335 l0 -40 4 23 c2 12 2 30 0 40 -3 9 -5 -1 -4 -23z" />
    <path d="M4415 9010 c3 -5 8 -10 11 -10 3 0 2 5 -1 10 -3 6 -8 10 -11 10 -3 0
-2 -4 1 -10z" />
    <path d="M5670 7767 c0 -2 14 -16 32 -33 29 -26 22 -10 -9 23 -11 12 -23 17
-23 10z" />
    <path d="M6986 6472 c-3 -5 5 -19 18 -31 l24 -23 6 10 c3 5 -5 19 -18 31 l-24
23 -6 -10z m29 -22 c10 -11 16 -20 13 -20 -3 0 -13 9 -23 20 -10 11 -16 20
-13 20 3 0 13 -9 23 -20z" />
    <path d="M8299 5158 c13 -15 28 -25 33 -22 l9 6 -12 14 c-6 8 -14 12 -17 9 -3
-3 -12 1 -21 7 -9 7 -5 0 8 -14z m26 -8 c3 -5 4 -10 1 -10 -3 0 -8 5 -11 10
-3 6 -4 10 -1 10 3 0 8 -4 11 -10z" />
    <path d="M14 4570 c0 -118 2 -167 3 -107 2 59 2 155 0 215 -1 59 -3 10 -3
-108z" />
    <path d="M9600 3866 c0 -2 8 -10 18 -17 l17 -14 -14 18 c-13 16 -21 21 -21 13z" />
    <path d="M9675 3790 c10 -11 20 -20 23 -20 3 0 -3 9 -13 20 -10 11 -20 20 -23
20 -3 0 3 -9 13 -20z" />
    <path d="M10960 2518 c41 -45 50 -53 50 -45 0 2 -21 23 -47 47 l-48 45 45 -47z" />
    <path d="M12260 1225 c30 -30 57 -55 59 -55 3 0 -19 25 -49 55 -30 30 -57 55
-59 55 -3 0 19 -25 49 -55z" />
    <path d="M11798 33 c18 -2 45 -2 60 0 15 2 0 4 -33 4 -33 0 -45 -2 -27 -4z" />
    <path d="M9563 23 c15 -2 39 -2 55 0 15 2 2 4 -28 4 -30 0 -43 -2 -27 -4z" />
    <path d="M5078 13 c18 -2 45 -2 60 0 15 2 0 4 -33 4 -33 0 -45 -2 -27 -4z" />
    <path d="M2843 3 c15 -2 39 -2 55 0 15 2 2 4 -28 4 -30 0 -43 -2 -27 -4z" />
  </g>
  <g transform="translate(0.000000,1341.000000) scale(0.100000,-0.100000)" fill="#3d4089" stroke="none">
    <path d="M24 8220 c0 -146 2 -205 3 -132 2 72 2 192 0 265 -1 72 -3 13 -3
-133z" />
    <path d="M7954 5508 l-7 -11 11 7 c12 7 16 16 8 16 -3 0 -8 -5 -12 -12z" />
    <path d="M7974 5488 l-7 -11 11 7 c7 4 12 9 12 12 0 8 -9 4 -16 -8z" />
    <path d="M13250 235 c13 -14 26 -25 28 -25 3 0 -5 11 -18 25 -13 14 -26 25
-28 25 -3 0 5 -11 18 -25z" />
    <path d="M10467 33 c18 -2 50 -2 70 0 21 2 7 4 -32 4 -38 0 -55 -2 -38 -4z" />
    <path d="M8227 23 c18 -2 50 -2 70 0 21 2 7 4 -32 4 -38 0 -55 -2 -38 -4z" />
    <path d="M3747 13 c18 -2 50 -2 70 0 21 2 7 4 -32 4 -38 0 -55 -2 -38 -4z" />
    <path d="M1507 3 c18 -2 50 -2 70 0 21 2 7 4 -32 4 -38 0 -55 -2 -38 -4z" />
  </g>
  <g transform="translate(0.000000,1341.000000) scale(0.100000,-0.100000)" fill="#97b5ae" stroke="none">
    <path d="M10248 12183 c23 -2 59 -2 80 0 20 2 1 4 -43 4 -44 0 -61 -2 -37 -4z" />
    <path d="M3528 12173 c23 -2 59 -2 80 0 20 2 1 4 -43 4 -44 0 -61 -2 -37 -4z" />
    <path d="M1500 11915 c30 -30 57 -55 59 -55 3 0 -19 25 -49 55 -30 30 -57 55
-59 55 -3 0 19 -25 49 -55z" />
    <path d="M2410 11017 c0 -2 15 -16 33 -33 l32 -29 -29 33 c-28 30 -36 37 -36
29z" />
    <path d="M11953 10400 c0 -36 2 -50 4 -32 2 17 2 47 0 65 -2 17 -4 3 -4 -33z" />
    <path d="M3345 10090 c10 -11 20 -20 23 -20 3 0 -3 9 -13 20 -10 11 -20 20
-23 20 -3 0 3 -9 13 -20z" />
    <path d="M6960 6505 c19 -19 36 -35 39 -35 3 0 -10 16 -29 35 -19 19 -36 35
-39 35 -3 0 10 -16 29 -35z" />
    <path d="M7845 5630 c33 -33 62 -60 64 -60 3 0 -21 27 -54 60 -33 33 -62 60
-64 60 -3 0 21 -27 54 -60z" />
    <path d="M11943 5035 c0 -38 2 -53 4 -32 2 20 2 52 0 70 -2 17 -4 1 -4 -38z" />
    <path d="M8760 4725 c30 -30 57 -55 59 -55 3 0 -19 25 -49 55 -30 30 -57 55
-59 55 -3 0 19 -25 49 -55z" />
    <path d="M9655 3840 c3 -5 8 -10 11 -10 3 0 2 5 -1 10 -3 6 -8 10 -11 10 -3 0
-2 -4 1 -10z" />
    <path d="M11933 2350 c0 -36 2 -50 4 -32 2 17 2 47 0 65 -2 17 -4 3 -4 -33z" />
  </g>
  <g transform="translate(0.000000,1341.000000) scale(0.100000,-0.100000)" fill="#9cb8b1" stroke="none">
    <path d="M10093 12183 c26 -2 67 -2 90 0 23 2 2 3 -48 3 -49 0 -68 -1 -42 -3z" />
    <path d="M3373 12173 c26 -2 67 -2 90 0 23 2 2 3 -48 3 -49 0 -68 -1 -42 -3z" />
    <path d="M1595 11820 c27 -27 51 -50 54 -50 3 0 -17 23 -44 50 -27 28 -51 50
-54 50 -3 0 17 -22 44 -50z" />
    <path d="M2490 10935 c19 -19 36 -35 39 -35 3 0 -10 16 -29 35 -19 19 -36 35
-39 35 -3 0 10 -16 29 -35z" />
    <path d="M11953 10280 c0 -41 2 -58 4 -37 2 20 2 54 0 75 -2 20 -4 3 -4 -38z" />
    <path d="M6105 7350 c10 -11 20 -20 23 -20 3 0 -3 9 -13 20 -10 11 -20 20 -23
20 -3 0 3 -9 13 -20z" />
    <path d="M6990 6477 c0 -2 15 -16 33 -33 l32 -29 -29 33 c-28 30 -36 37 -36
29z" />
    <path d="M7930 5545 c19 -19 36 -35 39 -35 3 0 -10 16 -29 35 -19 19 -36 35
-39 35 -3 0 10 -16 29 -35z" />
    <path d="M7980 5496 c0 -2 8 -10 18 -17 l17 -14 -14 18 c-13 16 -21 21 -21 13z" />
    <path d="M11943 4915 c0 -38 2 -53 4 -32 2 20 2 52 0 70 -2 17 -4 1 -4 -38z" />
    <path d="M8815 4670 c3 -5 8 -10 11 -10 3 0 2 5 -1 10 -3 6 -8 10 -11 10 -3 0
-2 -4 1 -10z" />
    <path d="M8905 4580 c3 -5 8 -10 11 -10 3 0 2 5 -1 10 -3 6 -8 10 -11 10 -3 0
-2 -4 1 -10z" />
    <path d="M11933 2235 c0 -38 2 -53 4 -32 2 20 2 52 0 70 -2 17 -4 1 -4 -38z" />
  </g>
  <g transform="translate(0.000000,1341.000000) scale(0.100000,-0.100000)" fill="#c2d3cf" stroke="none">
    <path d="M8898 12183 c34 -2 88 -2 120 0 31 2 3 3 -63 3 -66 0 -92 -1 -57 -3z" />
    <path d="M2178 12173 c34 -2 88 -2 120 0 31 2 3 3 -63 3 -66 0 -92 -1 -57 -3z" />
    <path d="M11964 12025 c0 -55 1 -76 3 -47 2 29 2 74 0 100 -2 26 -3 2 -3 -53z" />
    <path d="M2020 11395 c13 -14 26 -25 28 -25 3 0 -5 11 -18 25 -13 14 -26 25
-28 25 -3 0 5 -11 18 -25z" />
    <path d="M2925 10500 c10 -11 20 -20 23 -20 3 0 -3 9 -13 20 -10 11 -20 20
-23 20 -3 0 3 -9 13 -20z" />
    <path d="M2965 10460 c3 -5 8 -10 11 -10 3 0 2 5 -1 10 -3 6 -8 10 -11 10 -3
0 -2 -4 1 -10z" />
    <path d="M11954 9345 c0 -55 1 -76 3 -47 2 29 2 74 0 100 -2 26 -3 2 -3 -53z" />
    <path d="M8420 5055 c13 -14 26 -25 28 -25 3 0 -5 11 -18 25 -13 14 -26 25
-28 25 -3 0 5 -11 18 -25z" />
    <path d="M9325 4160 c21 -22 41 -40 44 -40 3 0 -13 18 -34 40 -21 22 -41 40
-44 40 -3 0 13 -18 34 -40z" />
    <path d="M11944 3975 c0 -55 1 -76 3 -47 2 29 2 74 0 100 -2 26 -3 2 -3 -53z" />
    <path d="M10235 3260 c21 -22 41 -40 44 -40 3 0 -13 18 -34 40 -21 22 -41 40
-44 40 -3 0 13 -18 34 -40z" />
    <path d="M11125 2380 c3 -5 8 -10 11 -10 3 0 2 5 -1 10 -3 6 -8 10 -11 10 -3
0 -2 -4 1 -10z" />
  </g>
  <g transform="translate(0.000000,1341.000000) scale(0.100000,-0.100000)" fill="#bbceca" stroke="none">
    <path d="M9118 12183 c34 -2 88 -2 120 0 31 2 3 3 -63 3 -66 0 -92 -1 -57 -3z" />
    <path d="M11963 12150 c0 -25 2 -35 4 -22 2 12 2 32 0 45 -2 12 -4 2 -4 -23z" />
    <path d="M2398 12173 c34 -2 88 -2 120 0 31 2 3 3 -63 3 -66 0 -92 -1 -57 -3z" />
    <path d="M1970 11445 c19 -19 36 -35 39 -35 3 0 -10 16 -29 35 -19 19 -36 35
-39 35 -3 0 10 -16 29 -35z" />
    <path d="M2875 10550 c21 -22 41 -40 44 -40 3 0 -13 18 -34 40 -21 22 -41 40
-44 40 -3 0 13 -18 34 -40z" />
    <path d="M3760 9676 c0 -2 8 -10 18 -17 l17 -14 -14 18 c-13 16 -21 21 -21 13z" />
    <path d="M11954 9515 c0 -49 1 -71 3 -48 2 23 2 64 0 90 -2 26 -3 8 -3 -42z" />
    <path d="M8325 5150 c10 -11 20 -20 23 -20 3 0 -3 9 -13 20 -10 11 -20 20 -23
20 -3 0 3 -9 13 -20z" />
    <path d="M11944 4150 c0 -52 1 -74 3 -47 2 26 2 68 0 95 -2 26 -3 4 -3 -48z" />
    <path d="M9275 4210 c10 -11 20 -20 23 -20 3 0 -3 9 -13 20 -10 11 -20 20 -23
20 -3 0 3 -9 13 -20z" />
  </g>
</svg>